<?xml version="1.0" encoding="UTF-8" standalone="no"?>
<!-- Creator: CorelDRAW -->

<svg
   xmlns:dc="http://purl.org/dc/elements/1.1/"
   xmlns:cc="http://creativecommons.org/ns#"
   xmlns:rdf="http://www.w3.org/1999/02/22-rdf-syntax-ns#"
   xmlns:svg="http://www.w3.org/2000/svg"
   xmlns="http://www.w3.org/2000/svg"
   xmlns:sodipodi="http://sodipodi.sourceforge.net/DTD/sodipodi-0.dtd"
   xmlns:inkscape="http://www.inkscape.org/namespaces/inkscape"
   xml:space="preserve"
   width="125.86385mm"
   height="62.178902mm"
   style="clip-rule:evenodd;fill-rule:evenodd;image-rendering:optimizeQuality;shape-rendering:geometricPrecision;text-rendering:geometricPrecision"
   viewBox="0 0 125.86385 62.178902"
   version="1.1"
   id="svg150"
   sodipodi:docname="car-3.svg"
   inkscape:version="0.92.3 (2405546, 2018-03-11)"><metadata
   id="metadata154"><rdf:RDF><cc:Work
       rdf:about=""><dc:format>image/svg+xml</dc:format><dc:type
         rdf:resource="http://purl.org/dc/dcmitype/StillImage" /><dc:title></dc:title></cc:Work></rdf:RDF></metadata><sodipodi:namedview
   pagecolor="#ffffff"
   bordercolor="#666666"
   borderopacity="1"
   objecttolerance="10"
   gridtolerance="10"
   guidetolerance="10"
   inkscape:pageopacity="0"
   inkscape:pageshadow="2"
   inkscape:window-width="1920"
   inkscape:window-height="1017"
   id="namedview152"
   showgrid="false"
   inkscape:zoom="3.6169155"
   inkscape:cx="237.85295"
   inkscape:cy="117.50344"
   inkscape:window-x="-4"
   inkscape:window-y="9"
   inkscape:window-maximized="1"
   inkscape:current-layer="svg150"
   showborder="false"
   fit-margin-top="0"
   fit-margin-left="0"
   fit-margin-right="0"
   fit-margin-bottom="0" />
 <defs
   id="defs4"><style
     type="text/css"
     id="style2">
   <![CDATA[
    .str1 {stroke:#1F1A17;stroke-width:0.0762}
    .str2 {stroke:#191919;stroke-width:0.0762}
    .str0 {stroke:black;stroke-width:2.8222}
    .fil0 {fill:black}
    .fil10 {fill:blue}
    .fil17 {fill:#333300}
    .fil5 {fill:#333333}
    .fil1 {fill:#666666}
    .fil2 {fill:#6666FF}
    .fil12 {fill:#7F7F7F}
    .fil7 {fill:#990000}
    .fil16 {fill:#B2B2B2}
    .fil18 {fill:#CC9933}
    .fil15 {fill:#CCCC33}
    .fil9 {fill:#CCCCCC}
    .fil6 {fill:#E5E5E5}
    .fil3 {fill:red}
    .fil13 {fill:#FF9933}
    .fil14 {fill:#FF9966}
    .fil8 {fill:yellow}
    .fil11 {fill:#FFFFF2}
    .fil4 {fill:white}
   ]]>
  </style></defs>
 <g
   id="_243783456"
   transform="translate(-82.6247,-102.2228)">
   <path
   style="fill:#000000;stroke:#000000;stroke-width:2.82220006"
   inkscape:connector-curvature="0"
   d="m 204.713,147.963 h 2.0546 l -0.47,2.3522 h -1.799 c -0.5753,2.2071 -2.2451,3.8152 -4.201,3.8152 h -3.2018 l -0.1823,0.8088 h -0.5398 c -0.004,0.0142 -0.008,0.0285 -0.0123,0.0427 h -1.7489 c -1.5421,4.6429 -5.9301,8.0087 -11.0789,8.0087 -5.1488,0 -9.5361,-3.3658 -11.0781,-8.0087 h -1.7491 c -0.004,-0.0142 -0.008,-0.0285 -0.0118,-0.0427 h -0.5409 c -0.0375,-0.1383 -0.0731,-0.2776 -0.1064,-0.4175 -0.0333,0.1399 -0.0687,0.2792 -0.1062,0.4175 h -0.5398 c -0.004,0.0142 -0.008,0.0285 -0.0123,0.0427 H 168.4592 168 167.6397 c -1.542,4.6429 -5.9297,8.0087 -11.0785,8.0087 -5.1488,0 -9.5364,-3.3658 -11.0785,-8.0087 h -1.7488 c -0.004,-0.0142 -0.008,-0.0285 -0.0118,-0.0427 h -0.5408 -21.795 -0.5398 c -0.004,0.0142 -0.008,0.0285 -0.0123,0.0427 h -1.7493 c -1.542,4.6429 -5.9297,8.0087 -11.0785,8.0087 -5.1488,0 -9.5364,-3.3658 -11.0785,-8.0087 h -1.7487 c -0.0041,-0.0142 -0.0078,-0.0285 -0.0118,-0.0427 h -0.5409 c -0.0723,-0.2665 -0.1367,-0.5364 -0.1933,-0.8088 H 89.145 c -1.8921,0 -3.5171,-1.5043 -4.1419,-3.6006 -0.306,0.0952 -0.6307,0.1469 -0.9673,0.1469 v -3.2672 -3.2672 c 0.2381,0 0.47,0.0261 0.6938,0.0748 v -6.26 c 0,-3.0263 1.9869,-5.5023 4.4154,-5.5023 h 15.6207 l 9.6474,-15.1493 h -0.1123 c -0.2696,0 -0.4901,-0.2205 -0.4901,-0.4901 v -0.754 c 0,-0.2696 0.2205,-0.4901 0.4901,-0.4901 h 1.8994 l 1.2621,-3.3038 h 0.1585 v -2.3104 c 0,-1.3376 1.0944,-2.432 2.432,-2.432 v 0 c 1.3376,0 2.432,1.0944 2.432,2.432 v 2.3104 h 0.2801 l 1.2621,3.3038 h 11.5987 l -0.5338,-1.9794 c -0.3607,-1.3376 0.4386,-2.432 1.7762,-2.432 h 0.3031 v -1.3376 c 0,-0.5351 0.4377,-0.9728 0.9728,-0.9728 h 48.5711 l 0.1808,-0.4732 h 0.1585 v -2.3104 c 0,-1.3376 1.0944,-2.432 2.432,-2.432 v 0 c 1.3376,0 2.432,1.0944 2.432,2.432 v 2.3104 h 0.2801 l 0.2139,0.5599 c 0.3371,0.1532 0.5732,0.4933 0.5732,0.8861 v 0.6144 l 0.304,0.7958 c 1.1275,0.2646 2.1746,1.2242 2.4807,2.3594 l 5.099,18.9091 c 2.1609,0.3523 3.8437,2.6719 3.8437,5.4561 v 6.6571 h 2.0546 l -0.47,2.3522 h -1.5846 z"
   class="fil0 str0"
   id="_243784848" />
   <rect
   style="fill:#cccccc;stroke:#1f1a17;stroke-width:0.0762"
   ry="0.97280002"
   rx="0.97280002"
   height="3.5264001"
   width="55.8144"
   y="108.849"
   x="137.17101"
   class="fil9 str1"
   id="_243784800" />
   <rect
   style="fill:#0000ff;stroke:#1f1a17;stroke-width:0.0762"
   ry="2.4319999"
   rx="2.4319999"
   height="7.296"
   width="4.8639998"
   y="103.634"
   x="187.05499"
   class="fil10 str1"
   id="_243784752" />
   <polygon
   style="fill:#fffff2;stroke:#1f1a17;stroke-width:0.0762"
   points="186.896,108.376 192.199,108.376 193.499,111.781 185.595,111.781 "
   class="fil11 str1"
   id="_243784704" />
   <rect
   style="fill:#0000ff;stroke:#1f1a17;stroke-width:0.0762"
   ry="2.4319999"
   rx="2.4319999"
   height="7.296"
   width="4.8639998"
   y="107.525"
   x="117.621"
   class="fil10 str1"
   id="_243784656" />
   <polygon
   style="fill:#fffff2;stroke:#1f1a17;stroke-width:0.0762"
   points="117.462,112.267 122.765,112.267 124.066,115.672 116.162,115.672 "
   class="fil11 str1"
   id="_243784608" />
   <rect
   style="fill:#666666;stroke:#1f1a17;stroke-width:0.0762"
   y="0"
   x="0"
   height="2.9435999"
   width="2.8097999"
   transform="matrix(1.12446,0,-0.159656,0.79909,203.608,147.963)"
   class="fil1 str1"
   id="_243784560" />
   <rect
   style="fill:#666666;stroke:#1f1a17;stroke-width:0.0762"
   y="0"
   x="0"
   height="2.9435999"
   width="2.8097999"
   transform="matrix(1.12446,0,-0.159656,0.79909,203.608,144.614)"
   class="fil1 str1"
   id="_243784512" />
   <polygon
   style="fill:#6666ff;stroke:#1f1a17;stroke-width:0.0762"
   points="161.555,135.997 102.51,135.997 115.21,116.054 151.395,116.054 "
   class="fil2 str1"
   id="_243784464" />
   <path
   style="fill:#fffff2;stroke:#1f1a17;stroke-width:0.0762"
   inkscape:connector-curvature="0"
   d="m 114.301,115.571 h 38.0016 c 0.2696,0 0.4901,0.2205 0.4901,0.4901 v 0.754 c 0,0.2696 -0.2205,0.4901 -0.4901,0.4901 h -3.8066 l 5.389,17.5577 h -2.0462 l -11.5073,-0.4121 -10.6876,0.0253 h -2.0462 l 1.3244,-17.1709 H 114.301 c -0.2696,0 -0.4901,-0.2205 -0.4901,-0.4901 v -0.754 c 0,-0.2696 0.2205,-0.4901 0.4901,-0.4901 z"
   class="fil11 str1"
   id="_243784416" />
   <rect
   style="fill:#fffff2;stroke:#1f1a17;stroke-width:0.0762"
   y="0"
   x="0"
   ry="2.4319999"
   rx="2.4319999"
   height="30.8864"
   width="60.678398"
   transform="matrix(1,0,0.269655,1,134.436,111.16)"
   class="fil11 str1"
   id="_243784368" />
   <path
   style="fill:#fffff2;stroke:#1f1a17;stroke-width:0.0762"
   inkscape:connector-curvature="0"
   d="m 89.1451,132.455 h 111.153 c 2.4285,0 4.4154,2.4768 4.4154,5.5023 v 10.671 c 0,3.0255 -1.9877,5.5023 -4.4154,5.5023 H 89.1451 c -2.4277,0 -4.4154,-2.476 -4.4154,-5.5023 v -10.671 c 0,-3.0263 1.9869,-5.5023 4.4154,-5.5023 z"
   class="fil11 str1"
   id="_243784320" />
   <path
   style="fill:#ffffff"
   inkscape:connector-curvature="0"
   d="m 121.347,151.32 c 0,1.2689 -0.1787,2.4972 -0.5123,3.6614 h -25.655 c -0.3336,-1.1642 -0.5129,-2.3924 -0.5129,-3.6612 -10e-5,-7.3469 5.9933,-13.3404 13.34,-13.3402 7.3469,-1e-4 13.3404,5.9933 13.3402,13.34 z"
   class="fil4"
   id="_243784248" />
   <circle
   style="fill:#333333;stroke:#1f1a17;stroke-width:0.0762"
   r="11.67"
   cy="151.32001"
   cx="108.007"
   class="fil5 str1"
   id="_243784200" />
   <circle
   style="fill:#e5e5e5;stroke:#1f1a17;stroke-width:0.0762"
   r="5.4825702"
   cy="152.80701"
   cx="109.493"
   class="fil6 str1"
   id="_243784152" />
   <circle
   style="fill:#ff0000;stroke:#1f1a17;stroke-width:0.0762"
   r="2.2713499"
   cy="151.32001"
   cx="108.007"
   class="fil3 str1"
   id="_243784104" />
   <path
   style="fill:#ffffff"
   inkscape:connector-curvature="0"
   d="m 169.902,151.32 c 0,1.269 -0.1787,2.4971 -0.5124,3.6613 h -0.9298 -0.4592 -24.2661 c -0.3336,-1.1642 -0.5129,-2.3924 -0.5129,-3.6613 0,-7.3468 5.9934,-13.3402 13.3402,-13.3402 7.3468,0 13.3402,5.9934 13.3402,13.3402 z"
   class="fil4"
   id="_243784032" />
   <circle
   style="fill:#333333;stroke:#1f1a17;stroke-width:0.0762"
   r="11.67"
   cy="151.32001"
   cx="156.561"
   class="fil5 str1"
   id="_243783984" />
   <circle
   style="fill:#e5e5e5;stroke:#1f1a17;stroke-width:0.0762"
   r="5.4825702"
   cy="152.80701"
   cx="158.048"
   class="fil6 str1"
   id="_243783936" />
   <circle
   style="fill:#ff0000;stroke:#1f1a17;stroke-width:0.0762"
   r="2.2713499"
   cy="151.32001"
   cx="156.561"
   class="fil3 str1"
   id="_243783888" />
   <path
   style="fill:#ffff00;stroke:#1f1a17;stroke-width:0.0762"
   inkscape:connector-curvature="0"
   d="m 84.036,147.409 v 3.2672 c 1.8041,0 3.2672,-1.4631 3.2672,-3.2672 0,-1.8041 -1.4631,-3.2672 -3.2672,-3.2672 z"
   class="fil8 str1"
   id="_243783840" />
   <path
   style="fill:#ffffff"
   inkscape:connector-curvature="0"
   d="m 196.874,151.32 c 0,1.2689 -0.1787,2.4972 -0.5123,3.6614 h -25.655 c -0.3336,-1.1642 -0.5129,-2.3924 -0.5129,-3.6612 -1e-4,-7.3469 5.9933,-13.3404 13.34,-13.3402 7.3469,-1e-4 13.3404,5.9933 13.3402,13.34 z"
   class="fil4"
   id="_243783768" />
   <circle
   style="fill:#333333;stroke:#1f1a17;stroke-width:0.0762"
   r="11.67"
   cy="151.32001"
   cx="183.534"
   class="fil5 str1"
   id="_243783720" />
   <circle
   style="fill:#e5e5e5;stroke:#1f1a17;stroke-width:0.0762"
   r="5.4825702"
   cy="152.80701"
   cx="185.021"
   class="fil6 str1"
   id="_243783672" />
   <circle
   style="fill:#ff0000;stroke:#1f1a17;stroke-width:0.0762"
   r="2.2713499"
   cy="151.32001"
   cx="183.534"
   class="fil3 str1"
   id="_243783624" />
   <path
   style="fill:#6666ff;stroke:#1f1a17;stroke-width:0.0762"
   inkscape:connector-curvature="0"
   d="m 179.455,113.227 h 9.5367 c 1.6199,0 3.2712,1.3253 3.6699,2.9452 l 2.8891,11.7416 c 0.3985,1.6199 -0.6007,2.9452 -2.2205,2.9452 h -9.5367 c -1.6199,0 -3.2714,-1.3253 -3.6699,-2.9452 l -2.8891,-11.7416 c -0.3986,-1.6199 0.6006,-2.9452 2.2205,-2.9452 z m -18.3616,0 h 9.5367 c 1.6199,0 3.2712,1.3253 3.6699,2.9452 l 2.8891,11.7416 c 0.3985,1.6199 -0.6007,2.9452 -2.2205,2.9452 h -9.5367 c -1.6199,0 -3.2714,-1.3253 -3.6699,-2.9452 l -2.8891,-11.7416 c -0.3986,-1.6199 0.6006,-2.9452 2.2205,-2.9452 z"
   class="fil2 str1"
   id="_243783576" />
   <path
   style="fill:#cccccc;stroke:#1f1a17;stroke-width:0.0762"
   inkscape:connector-curvature="0"
   d="m 156.561,137.459 c 6.5319,0 12.0334,4.5592 13.486,10.6577 1.4526,-6.0985 6.9545,-10.6577 13.4864,-10.6577 7.6341,0 13.8618,6.2277 13.8618,13.8618 0,0.8388 -0.0761,1.6599 -0.2204,2.4581 l -0.2615,1.1605 h -1.3513 c 0.3465,-1.1469 0.534,-2.3614 0.534,-3.6186 0,-6.9186 -5.644,-12.5626 -12.5626,-12.5626 -6.9186,0 -12.5626,5.644 -12.5626,12.5626 0,1.2572 0.1875,2.4717 0.534,3.6186 h -1.3513 c -0.0375,-0.1383 -0.0731,-0.2776 -0.1064,-0.4175 -0.0333,0.1399 -0.0687,0.2792 -0.1062,0.4175 h -1.3513 c 0.3465,-1.1469 0.534,-2.3614 0.534,-3.6186 0,-6.9186 -5.644,-12.5626 -12.5626,-12.5626 -6.9186,0 -12.5626,5.644 -12.5626,12.5626 0,1.2572 0.1875,2.4717 0.534,3.6186 h -0.7559 -0.5954 -21.795 -1.3513 c 0.3465,-1.1469 0.534,-2.3614 0.534,-3.6186 0,-6.9186 -5.644,-12.5626 -12.5626,-12.5626 -6.9186,0 -12.5626,5.644 -12.5626,12.5626 0,1.2572 0.1875,2.4717 0.534,3.6186 h -1.3513 c -0.3134,-1.1545 -0.4819,-2.3673 -0.4819,-3.6186 0,-7.6341 6.2277,-13.8618 13.8618,-13.8618 7.6341,0 13.8618,6.2277 13.8618,13.8618 0,0.8388 -0.0761,1.6599 -0.2204,2.4581 h 21.272 c -0.1443,-0.7982 -0.2204,-1.6193 -0.2204,-2.4581 0,-7.6341 6.2277,-13.8618 13.8618,-13.8618 z"
   class="fil9 str1"
   id="_243783528" />
   <polygon
   style="fill:#ff0000;stroke:#1f1a17;stroke-width:0.0762"
   points="155.551,124.759 151.6,124.759 151.6,128.711 147.041,128.711 147.041,124.759 143.089,124.759 143.089,120.2 147.041,120.2 147.041,116.249 151.6,116.249 151.6,120.2 155.551,120.2 "
   class="fil3 str1"
   id="_243783480" />
  </g>
</svg>