<svg width="2075" height="2335" xmlns="http://www.w3.org/2000/svg">

 <metadata id="imagebot_1915">image/svg+xml</metadata>
 <g id="imagebot_2">
  <g transform="matrix(-0.0101078, -2.31256, 2.31256, -0.0101078, -2537.2, 1160.02)" id="imagebot_114"/>
  <title>imagebot_2</title>
  <g id="imagebot_94" transform="translate(-123, -15) matrix(20.7494, 0, 0, 20.5279, 347.587, -4133.13)">
   <path id="imagebot_1919" fill="#ffffff" stroke="#2d2d2d" stroke-width="2" stroke-miterlimit="4" stroke-dashoffset="0" d="M 26.93815 243.75854 C 26.4109 243.75654 25.95345 243.86171 25.66742 244.20141 C 22.01782 246.70014 20.36122 254.85395 16.40752 260.38543 C 13.75419 264.09761 9.54713 264.77004 7.65457 267.74415 C 6.12218 270.15228 6.45351 274.87684 7.6246 277.5756 C 7.96234 278.15783 8.69424 278.66198 9.72163 279.09178 A 8.747489999999999 8.747489999999999 0 0 1 18.00743 273.12315 A 8.747489999999999 8.747489999999999 0 0 1 26.69785 280.95833 C 27.32019 280.94193 27.94088 280.92043 28.55717 280.89063 C 28.91818 280.99212 29.29767 281.04979 29.69198 281.04979 L 48.88254 281.04979 A 8.747489999999999 8.747489999999999 0 0 1 57.5585 273.35982 A 8.747489999999999 8.747489999999999 0 0 1 66.23084 281.04979 L 67.41681 281.04979 C 69.72391 281.04979 71.58142 279.19229 71.58142 276.88519 L 71.58142 248.22389 C 71.58142 245.91679 69.72391 244.0598 67.41681 244.0598 L 29.69198 244.0598 C 28.89055 244.0598 27.8169 243.76135 26.93815 243.75853 L 26.93815 243.75854 z"/>
   <g id="imagebot_1920" transform="translate(74.856401,0.33492797)">
    <path id="imagebot_1921" fill="#999999" stroke="#2d2d2d" stroke-width="0.83761" stroke-miterlimit="4" stroke-dashoffset="0" d="M-12.51542,284.31339A6.09749,6.09749 0 0 1 -20.97367,285.99173A6.09749,6.09749 0 0 1 -22.652,277.53347A6.09749,6.09749 0 0 1 -14.19375,275.85513A6.09749,6.09749 0 0 1 -12.51542,284.31339z"/>
    <path id="imagebot_1922" fill="#cccccc" stroke="#2d2d2d" stroke-width="2.399" stroke-miterlimit="4" stroke-dashoffset="0" d="M30.98047,252.2832C26.24316,252.28345 21.93384,256.59277 21.93359,261.33008C21.93384,266.06738 26.24317,270.37671 30.98047,270.37695C35.71818,270.37734 40.02905,266.06779 40.0293,261.33008C40.02905,256.59237 35.71818,252.28281 30.98047,252.2832z" transform="matrix(0.34811281,0.23283722,-0.23283722,0.34811281,32.478847,182.73757)"/>
    <circle id="imagebot_1923" fill="#2d2d2d" stroke-width="0.4188" stroke-miterlimit="4" stroke-dashoffset="0" cx="141.60129" cy="243.10674" r="0.59614" transform="matrix(0.83120957,0.55595922,-0.55595922,0.83120957,0,0)"/>
   </g>
   <g id="imagebot_1924" transform="translate(34.999973,0.16746399)">
    <path id="imagebot_1925" fill="#999999" stroke="#2d2d2d" stroke-width="0.83761" stroke-miterlimit="4" stroke-dashoffset="0" d="M-12.51542,284.31339A6.09749,6.09749 0 0 1 -20.97367,285.99173A6.09749,6.09749 0 0 1 -22.652,277.53347A6.09749,6.09749 0 0 1 -14.19375,275.85513A6.09749,6.09749 0 0 1 -12.51542,284.31339z"/>
    <path id="imagebot_1926" fill="#cccccc" stroke="#2d2d2d" stroke-width="2.399" stroke-miterlimit="4" stroke-dashoffset="0" transform="matrix(0.34811281,0.23283722,-0.23283722,0.34811281,32.478847,182.73757)" d="M30.98047,252.2832C26.24316,252.28345 21.93384,256.59277 21.93359,261.33008C21.93384,266.06738 26.24317,270.37671 30.98047,270.37695C35.71818,270.37734 40.02905,266.06779 40.0293,261.33008C40.02905,256.59237 35.71818,252.28281 30.98047,252.2832z"/>
    <circle id="imagebot_1927" fill="#2d2d2d" stroke-width="0.4188" stroke-miterlimit="4" stroke-dashoffset="0" transform="matrix(0.83120957,0.55595922,-0.55595922,0.83120957,0,0)" r="0.59614" cy="243.10674" cx="141.60129"/>
   </g>
   <g id="imagebot_1928" transform="matrix(1.028724,0,0,0.64292599,21.014495,77.770041)">
    <path id="imagebot_1929" fill="#0084c8" stroke="#2d2d2d" stroke-miterlimit="4" stroke-dashoffset="0" d="M16.73129,256.43402L12.72807,256.43402C12.62411,256.43402 12.54042,256.32504 12.54042,256.18968C12.22509,249.79717 12.16183,248.87483 16.73129,248.94101C16.83525,248.94101 16.91895,249.04998 16.91895,249.18534L16.91895,256.18968C16.91895,256.32504 16.83525,256.43402 16.73129,256.43402z"/>
    <path id="imagebot_1930" fill="#b50000" stroke="#b50000" stroke-width="0.68809" stroke-miterlimit="4" stroke-dashoffset="0" d="M15.36037,255.02421L14.15863,255.02421C14.12742,255.02421 14.1023,254.96511 14.1023,254.89162C14.00764,251.42279 13.98865,250.92229 15.36037,250.95819C15.39158,250.95819 15.4167,251.01729 15.4167,251.09077L15.4167,254.89162C15.4167,254.96502 15.39158,255.02421 15.36037,255.02421z"/>
    <rect id="imagebot_1931" fill="#b50000" stroke="#2d2d2d" stroke-width="1.42676" stroke-miterlimit="4" stroke-dashoffset="0" width="8.44405" height="0.23831" x="10.43107" y="257.02438" ry="0.11916" rx="0.11916"/>
   </g>
   <path id="imagebot_1932" fill="#dc0000" stroke="#2d2d2d" stroke-width="0.69912" stroke-miterlimit="4" stroke-dashoffset="0" d="M 54.66301 246.94536 C 54.56572 246.94536 54.48743 247.02366 54.48743 247.12094 L 54.48743 251.51123 L 50.09678 251.51123 C 49.99949 251.51123 49.9212 251.58953 49.9212 251.68682 L 49.9212 255.90189 C 49.9212 255.99919 49.99949 256.07747 50.09678 256.07747 L 54.48743 256.07747 L 54.48743 260.46776 C 54.48743 260.56506 54.56572 260.64334 54.66301 260.64334 L 58.877720000000004 260.64334 C 58.97501 260.64334 59.05331 260.56504 59.05331 260.46776 L 59.05331 256.07747 L 63.4436 256.07747 C 63.54089 256.07747 63.61954 255.99917 63.61954 255.90189 L 63.61954 251.68682 C 63.61954 251.58952 63.54089 251.51123 63.4436 251.51123 L 59.05331 251.51123 L 59.05331 247.12094 C 59.05331 247.02364 58.97502 246.94536 58.877720000000004 246.94536 L 54.66301 246.94536 z"/>
   <path id="imagebot_1933" fill="#cccccc" stroke-width="1.7728" stroke-miterlimit="4" stroke-dashoffset="0" d="M 65.82007 244.98106 C 67.24467 245.46186 68.28168 246.98622 68.28168 248.80582 L 68.28168 276.23443 C 68.28168 277.48973 67.7879 278.60469 67.01439 279.33419 C 67.09137 279.67818 67.14947 280.02754 67.18834 280.38014 L 68.16204 280.38014 C 70.05619 280.38014 71.58123 278.60252 71.58123 276.39465 L 71.58123 248.96605 C 71.58123 246.75818 70.05619 244.98106 68.16204 244.98106 L 65.82007 244.98106 z"/>
   <path id="imagebot_1934" fill="#dc0000" stroke="#2d2d2d" stroke-width="1.00954" stroke-miterlimit="4" stroke-dashoffset="0" d="M14.77563,263.15276L72.07769,263.15276L72.07769,268.51277L7.52445,268.68568C7.98311,266.02083 11.04282,264.44578 14.77563,263.15276z"/>
   <g id="imagebot_1935">
    <path id="imagebot_1936" fill="#ffffff" stroke="#2d2d2d" stroke-width="1.00365" stroke-miterlimit="4" stroke-dashoffset="0" d="M 26.47304 248.1689 C 26.27388 248.1689 26.09653 248.36583 25.97806 248.67595 C 24.76693 250.67743 22.61505 258.0075 23.04559 259.64354 C 23.29132 260.57728 23.61512 260.93039 25.0408 260.9041 C 25.09688 260.9388 26.4118 260.8331 26.47304 260.8331 L 32.33236 260.8331 C 32.690690000000004 260.8331 32.9792 260.19715 32.9792 259.40727 L 32.9792 249.59465 C 32.9792 248.80478 32.690690000000004 248.169 32.33236 248.169 L 26.47304 248.1689 z"/>
    <path id="imagebot_1937" fill="#cccccc" stroke="#2d2d2d" stroke-width="1.00365" stroke-miterlimit="4" stroke-dashoffset="0" d="M 26.69576 248.18317 C 26.49659 248.18317 26.31916 248.38 26.20069 248.69012 C 24.98956 250.6916 22.83752 258.02188 23.26806 259.65792 C 23.51379 260.59166 23.837600000000002 260.9446 25.26328 260.91831 C 25.31936 260.95301 26.63451 260.84751 26.69576 260.84751 L 26.95879 260.84751 C 26.31254 260.7034 26.09156 260.33303 25.91389 259.65792 C 25.48335 258.02188 27.6354 250.6916 28.84653 248.69012 C 28.965 248.38 29.14242 248.18317 29.34159 248.18317 L 26.69576 248.18317 z"/>
   </g>
  </g>
 </g>
</svg>