<svg xmlns="http://www.w3.org/2000/svg" viewBox="0 0 216 322">
  <!-- Outer flame -->
  <path d="
    M108 8
    C120 40, 150 70, 170 100
    C190 130, 195 170, 180 210
    C165 250, 135 290, 108 310
    C70 290, 45 250, 35 210
    C25 170, 35 130, 60 100
    C85 70, 95 45, 108 8
    Z" fill="#ff5a14"/>

  <!-- Left flare -->
  <path d="
    M70 120
    C50 130, 40 150, 42 175
    C44 200, 60 220, 80 235
    C70 210, 68 190, 75 170
    C82 150, 88 135, 70 120
    Z" fill="#ff5a14"/>

  <!-- Right flare -->
  <path d="
    M150 120
    C170 135, 178 155, 175 180
    C172 205, 158 225, 135 240
    C150 215, 152 190, 145 170
    C138 150, 132 135, 150 120
    Z" fill="#ff5a14"/>

  <!-- Middle flame -->
  <path d="
    M108 70
    C100 95, 105 120, 120 140
    C135 120, 140 95, 135 75
    C150 95, 165 120, 165 160
    C165 200, 140 250, 108 285
    C75 250, 55 205, 60 165
    C65 125, 85 100, 100 80
    C105 75, 108 72, 108 70
    Z" fill="#ffa000"/>

  <!-- Inner flame -->
  <path d="
    M108 150
    C120 170, 130 190, 130 215
    C130 240, 120 265, 108 280
    C90 260, 80 240, 80 215
    C80 190, 95 170, 105 155
    C107 150, 108 150, 108 150
    Z" fill="#ffd166"/>
</svg>
